<svg version="1.1" id="Layer_1" xmlns="http://www.w3.org/2000/svg" xmlns:xlink="http://www.w3.org/1999/xlink" x="0px" y="0px"
	 width="100%" viewBox="0 0 522 587" enable-background="new 0 0 522 587" xml:space="preserve">
<path fill="#000000" opacity="1.000000" stroke="none" 
	d="
M1.000000,169.000000 
	C1.000000,112.679237 1.000000,56.858471 1.000000,1.018854 
	C174.948257,1.018854 348.896515,1.018854 522.922363,1.018854 
	C522.922363,196.570862 522.922363,392.141754 522.922363,587.856323 
	C349.000092,587.856323 175.000061,587.856323 1.000000,587.856323 
	C1.000000,448.436676 1.000000,308.968353 1.000000,169.000000 
M108.990814,353.897369 
	C108.639709,357.792419 108.033401,361.684387 107.986748,365.583069 
	C107.861420,376.056580 107.957733,386.533081 108.036667,397.007874 
	C108.041557,397.657013 108.656830,398.301544 108.972198,399.888367 
	C108.618721,405.497345 108.198586,411.103058 107.924995,416.715912 
	C107.255630,430.448059 106.669189,444.184235 106.018341,457.917328 
	C105.713028,464.359406 105.639290,470.831848 104.928513,477.231384 
	C103.444336,490.594360 101.567543,503.913300 99.931801,517.260071 
	C99.188118,523.328125 98.253090,529.408325 98.075150,535.502563 
	C97.727501,547.408997 96.157127,549.001160 110.580261,551.943054 
	C115.114029,552.867859 119.887871,552.586426 124.444603,553.433716 
	C135.184662,555.430847 145.808868,558.080322 156.576614,559.890747 
	C166.808258,561.611145 177.159729,562.625183 187.463989,563.905640 
	C198.478119,565.274292 209.493652,566.634521 220.518280,567.914795 
	C227.342529,568.707214 234.189224,569.976257 241.018280,569.929382 
	C260.024567,569.799072 279.040619,569.386597 298.025604,568.502014 
	C308.957916,567.992676 319.834167,566.317322 330.743225,565.243958 
	C333.664978,564.956421 336.653107,565.205322 339.543579,564.766052 
	C345.613068,563.843445 351.615387,562.476013 357.686859,561.569885 
	C365.534607,560.398682 373.452576,559.683960 381.284515,558.425415 
	C387.557068,557.417542 393.717834,555.728027 399.979614,554.635620 
	C408.057220,553.226318 416.288574,552.556885 424.260040,550.725708 
	C430.503723,549.291443 433.251495,544.488525 431.387177,538.077759 
	C430.121246,533.724609 430.383911,528.923340 429.993927,524.319885 
	C429.311859,516.268799 428.831360,508.195923 427.940826,500.168304 
	C426.797516,489.862488 425.093292,479.615967 424.075287,469.300049 
	C423.099762,459.414612 422.561920,449.479553 422.066071,439.554626 
	C421.296692,424.154846 420.608765,408.748871 420.115448,393.338226 
	C419.822296,384.180786 419.968353,375.009277 419.957916,364.927277 
	C419.950470,351.994446 419.942993,339.061584 419.998047,325.177124 
	C420.655731,308.602966 421.446411,292.032654 421.923828,275.453308 
	C422.236328,264.600037 422.033203,264.594360 432.674713,263.943787 
	C432.839600,263.933716 433.001801,263.875946 433.166595,263.868042 
	C446.425415,263.232269 459.683228,262.574707 472.943665,261.975159 
	C481.131042,261.604950 489.322174,261.317352 497.512085,261.004883 
	C501.406647,260.856293 503.676178,258.328949 504.855347,255.142761 
	C506.007874,252.028564 506.413544,248.619659 506.985657,245.312210 
	C509.044281,233.410690 511.163879,221.517456 513.019287,209.583588 
	C515.495117,193.658813 516.462280,177.587936 513.863525,161.656616 
	C511.801361,149.014648 509.889343,136.016205 505.295990,124.191727 
	C497.024780,102.899445 483.044617,85.435432 462.842407,73.936401 
	C452.118622,67.832458 440.969666,62.419266 429.762909,57.233963 
	C415.388611,50.583061 400.853729,44.256233 386.219147,38.197678 
	C372.865845,32.669575 359.301758,27.647587 345.784698,22.523441 
	C344.498535,22.035870 342.843872,22.173290 341.432068,22.424313 
	C335.353210,23.505150 329.333740,24.958366 323.230713,25.853947 
	C316.478790,26.844744 309.655243,27.339853 302.870300,28.115564 
	C294.688507,29.050980 286.530548,30.678448 278.333527,30.889200 
	C264.374207,31.248106 250.393219,31.321495 236.486847,29.056217 
	C222.015732,26.698950 207.469971,24.764952 192.916687,22.971924 
	C189.311493,22.527748 185.367554,22.711374 181.900848,23.715973 
	C175.123932,25.679827 168.550980,28.365601 161.934738,30.861637 
	C150.979355,34.994656 139.901398,38.853939 129.157135,43.483154 
	C113.832115,50.086014 98.792877,57.349014 83.574707,64.203812 
	C64.759933,72.678650 47.923447,84.028801 36.157021,101.115517 
	C28.823975,111.764252 22.899626,123.646278 20.042593,136.481949 
	C15.722440,155.890915 14.523424,175.477386 15.704512,195.472748 
	C16.749538,213.164673 19.671476,230.425690 22.999222,247.697083 
	C25.863777,262.564453 27.745638,260.771454 40.864861,261.746002 
	C47.229809,262.218781 53.654785,261.831085 60.049736,261.966919 
	C66.610046,262.106293 73.169693,262.349182 79.724556,262.655212 
	C88.639496,263.071503 97.549629,263.590668 107.087540,264.099060 
	C107.735085,275.065796 108.355980,285.581116 108.184166,296.443878 
	C108.119965,301.515167 107.929222,306.589111 108.035599,311.656830 
	C108.107643,315.089905 108.597305,318.514282 109.527863,322.469604 
	C109.679466,325.006165 109.831078,327.542725 109.175934,330.407562 
	C109.166489,337.935394 109.157051,345.463196 108.990814,353.897369 
z"/>
<path fill="#201F2D" opacity="1.000000" stroke="none" 
	d="
M419.916931,365.844116 
	C419.968353,375.009277 419.822296,384.180786 420.115448,393.338226 
	C420.608765,408.748871 421.296692,424.154846 422.066071,439.554626 
	C422.561920,449.479553 423.099762,459.414612 424.075287,469.300049 
	C425.093292,479.615967 426.797516,489.862488 427.940826,500.168304 
	C428.831360,508.195923 429.311859,516.268799 429.993927,524.319885 
	C430.383911,528.923340 430.121246,533.724609 431.387177,538.077759 
	C433.251495,544.488525 430.503723,549.291443 424.260040,550.725708 
	C416.288574,552.556885 408.057220,553.226318 399.979614,554.635620 
	C393.717834,555.728027 387.557068,557.417542 381.284515,558.425415 
	C373.452576,559.683960 365.534607,560.398682 357.686859,561.569885 
	C351.615387,562.476013 345.613068,563.843445 339.543579,564.766052 
	C336.653107,565.205322 333.664978,564.956421 330.743225,565.243958 
	C319.834167,566.317322 308.957916,567.992676 298.025604,568.502014 
	C279.040619,569.386597 260.024567,569.799072 241.018280,569.929382 
	C234.189224,569.976257 227.342529,568.707214 220.518280,567.914795 
	C209.493652,566.634521 198.478119,565.274292 187.463989,563.905640 
	C177.159729,562.625183 166.808258,561.611145 156.576614,559.890747 
	C145.808868,558.080322 135.184662,555.430847 124.444603,553.433716 
	C119.887871,552.586426 115.114029,552.867859 110.580261,551.943054 
	C96.157127,549.001160 97.727501,547.408997 98.075150,535.502563 
	C98.253090,529.408325 99.188118,523.328125 99.931801,517.260071 
	C101.567543,503.913300 103.444336,490.594360 104.928513,477.231384 
	C105.639290,470.831848 105.713028,464.359406 106.018341,457.917328 
	C106.669189,444.184235 107.255630,430.448059 107.924995,416.715912 
	C108.198586,411.103058 108.618721,405.497345 109.005875,398.975006 
	C109.331932,383.038544 109.624321,368.015411 109.993286,352.529694 
	C110.040817,344.737823 110.011757,337.408539 109.982689,330.079285 
	C109.831078,327.542725 109.679466,325.006165 109.272453,321.744385 
	C109.003654,312.711578 108.990265,304.404022 108.976875,296.096436 
	C108.355980,285.581116 107.735085,275.065796 107.087540,264.099060 
	C97.549629,263.590668 88.639496,263.071503 79.724556,262.655212 
	C73.169693,262.349182 66.610046,262.106293 60.049736,261.966919 
	C53.654785,261.831085 47.229809,262.218781 40.864861,261.746002 
	C27.745638,260.771454 25.863777,262.564453 22.999222,247.697083 
	C19.671476,230.425690 16.749538,213.164673 15.704512,195.472748 
	C14.523424,175.477386 15.722440,155.890915 20.042593,136.481949 
	C22.899626,123.646278 28.823975,111.764252 36.157021,101.115517 
	C47.923447,84.028801 64.759933,72.678650 83.574707,64.203812 
	C98.792877,57.349014 113.832115,50.086014 129.157135,43.483154 
	C139.901398,38.853939 150.979355,34.994656 161.934738,30.861637 
	C168.550980,28.365601 175.123932,25.679827 181.900848,23.715973 
	C185.367554,22.711374 189.311493,22.527748 192.916687,22.971924 
	C207.469971,24.764952 222.015732,26.698950 236.486847,29.056217 
	C250.393219,31.321495 264.374207,31.248106 278.333527,30.889200 
	C286.530548,30.678448 294.688507,29.050980 302.870300,28.115564 
	C309.655243,27.339853 316.478790,26.844744 323.230713,25.853947 
	C329.333740,24.958366 335.353210,23.505150 341.432068,22.424313 
	C342.843872,22.173290 344.498535,22.035870 345.784698,22.523441 
	C359.301758,27.647587 372.865845,32.669575 386.219147,38.197678 
	C400.853729,44.256233 415.388611,50.583061 429.762909,57.233963 
	C440.969666,62.419266 452.118622,67.832458 462.842407,73.936401 
	C483.044617,85.435432 497.024780,102.899445 505.295990,124.191727 
	C509.889343,136.016205 511.801361,149.014648 513.863525,161.656616 
	C516.462280,177.587936 515.495117,193.658813 513.019287,209.583588 
	C511.163879,221.517456 509.044281,233.410690 506.985657,245.312210 
	C506.413544,248.619659 506.007874,252.028564 504.855347,255.142761 
	C503.676178,258.328949 501.406647,260.856293 497.512085,261.004883 
	C489.322174,261.317352 481.131042,261.604950 472.943665,261.975159 
	C459.683228,262.574707 446.425415,263.232269 433.166595,263.868042 
	C433.001801,263.875946 432.839600,263.933716 432.674713,263.943787 
	C422.033203,264.594360 422.236328,264.600037 421.923828,275.453308 
	C421.446411,292.032654 420.655731,308.602966 419.570801,325.820251 
	C419.099701,338.927368 419.041901,351.391357 419.050873,363.855316 
	C419.051331,364.518463 419.615295,365.181183 419.916931,365.844116 
M404.700317,353.309570 
	C404.519196,345.230591 404.338074,337.151611 404.029907,328.587616 
	C404.014954,328.421143 404.000031,328.254700 404.007172,327.140137 
	C404.025299,320.312714 403.751495,313.469421 404.122314,306.661194 
	C404.894348,292.487213 405.952789,278.327728 407.001923,264.170319 
	C407.596283,256.149994 408.013000,248.086136 409.215973,240.148926 
	C410.764069,229.934204 412.612152,219.726913 415.067871,209.696823 
	C418.655273,195.044464 422.783508,180.519852 426.927490,166.011124 
	C428.250549,161.378891 432.766846,158.873169 436.222900,160.120834 
	C441.583344,162.056000 443.841370,166.234665 442.052673,171.307800 
	C440.006348,177.111664 437.296326,182.725433 435.745605,188.649780 
	C433.493774,197.252823 431.875122,206.032883 430.255127,214.787170 
	C428.286987,225.422897 426.598297,236.110352 424.587769,247.959686 
	C430.425751,247.576920 435.553101,247.150055 440.689270,246.921097 
	C455.815216,246.246796 470.940826,245.493896 486.075195,245.124435 
	C490.357422,245.019897 492.266876,243.683701 492.040283,239.368774 
	C491.973358,238.093674 492.413544,236.790955 492.628754,235.502151 
	C494.065826,226.896683 495.652435,218.312744 496.893341,209.679138 
	C497.772156,203.564529 498.461151,197.395050 498.732513,191.227966 
	C499.046509,184.091461 499.517426,176.841843 498.633453,169.802917 
	C497.519867,160.935440 494.280365,152.308472 493.451172,143.438171 
	C492.320129,131.339737 486.426819,121.326851 479.998688,112.054382 
	C471.418793,99.677940 460.037140,89.379547 446.369080,82.674370 
	C430.296143,74.789436 413.685303,67.995750 397.266632,60.822903 
	C388.894073,57.165165 380.444122,53.683056 372.005707,50.177990 
	C365.427734,47.445679 358.845367,44.718281 352.201935,42.151791 
	C348.946564,40.894184 346.557159,41.861454 344.482666,45.006306 
	C340.855286,50.505257 337.537720,56.706856 332.556732,60.702042 
	C324.350006,67.284584 315.393188,73.375328 305.865234,77.733612 
	C297.541565,81.541039 287.995087,82.675247 278.891296,84.274185 
	C278.221191,84.269966 277.551056,84.265747 275.959686,84.309860 
	C268.342255,84.332878 260.724823,84.355896 252.307358,84.023636 
	C248.823410,83.675888 245.339462,83.328148 241.052078,82.978851 
	C239.145432,82.680412 237.150467,82.643028 235.349014,82.033630 
	C230.342316,80.339966 225.316284,78.634842 220.486832,76.505669 
	C215.901794,74.484245 211.192169,72.419907 207.177536,69.495522 
	C197.736343,62.618267 188.970337,54.947769 183.447311,44.299438 
	C182.201248,41.897030 180.586609,41.423950 177.867737,42.564507 
	C168.465790,46.508583 158.912704,50.090790 149.443420,53.876450 
	C135.371201,59.502289 121.213440,64.934013 107.302322,70.935646 
	C98.915436,74.553978 90.926414,79.094666 82.759399,83.222435 
	C67.956795,90.703972 55.994949,101.395454 46.894814,115.238037 
	C35.849537,132.039459 31.944239,151.010040 31.102684,170.649704 
	C30.670712,180.730774 31.162003,190.920120 32.122490,200.975845 
	C33.516781,215.573166 35.712944,230.093903 37.645458,245.262131 
	C60.656246,245.988434 82.643456,246.682419 105.112961,247.391632 
	C103.120972,235.806778 101.901825,225.519058 99.502403,215.514404 
	C95.937256,200.649094 91.442459,186.008652 87.597733,171.206421 
	C87.041580,169.065231 87.037102,165.713943 88.305504,164.415710 
	C90.207809,162.468704 94.074921,160.265442 96.003136,161.013824 
	C99.138420,162.230759 102.809814,165.305466 103.755318,168.367828 
	C107.985420,182.068466 112.057899,195.900085 114.805038,209.954590 
	C117.955589,226.073029 120.197319,242.421967 121.821480,258.771332 
	C123.505554,275.723755 123.977570,292.796600 124.805145,310.735962 
	C124.977058,313.212524 125.148964,315.689087 125.288704,319.058899 
	C125.241844,322.360474 125.194992,325.662079 124.780121,329.172424 
	C124.912827,329.462433 125.045532,329.752411 125.460663,330.870422 
	C125.365875,332.894501 125.271088,334.918610 124.515511,337.467010 
	C124.734665,341.329681 124.953819,345.192322 125.462891,349.947174 
	C125.386475,356.256592 125.310051,362.565979 124.948677,369.575562 
	C125.285217,370.359924 125.621750,371.144318 125.957878,372.809509 
	C125.291573,383.301941 124.536667,393.789734 123.985802,404.288208 
	C123.508896,413.377045 123.456802,422.490570 122.869095,431.570648 
	C122.050568,444.216858 120.773064,456.833313 119.951790,469.479401 
	C119.416389,477.723572 119.518784,486.008728 119.003845,494.254822 
	C118.615662,500.471069 117.568481,506.643494 117.056747,512.855347 
	C116.475014,519.916992 116.042503,526.997986 115.876755,534.078308 
	C115.854675,535.021484 117.653961,536.649170 118.821770,536.878052 
	C129.448883,538.960388 140.112091,540.866760 150.787308,542.692566 
	C157.896301,543.908386 165.019043,545.101013 172.176895,545.960266 
	C182.454971,547.194153 192.846970,547.640503 203.052017,549.282532 
	C217.606476,551.624451 232.153168,553.360901 246.915466,553.052124 
	C248.646759,553.015930 250.390961,553.596313 252.182358,554.661011 
	C254.453308,554.793579 256.724243,554.926147 259.912231,555.051941 
	C263.277039,555.056152 266.641876,555.060364 270.599670,555.630554 
	C274.341705,555.630554 278.083740,555.630554 282.216888,555.630554 
	C279.520782,555.016724 277.244904,554.498596 275.773071,553.942627 
	C322.698822,551.860535 368.821564,543.933105 414.797607,535.720947 
	C414.492035,531.917175 414.253998,528.985413 414.021484,526.053284 
	C413.487244,519.314941 413.102997,512.560791 412.390381,505.841431 
	C411.158447,494.226227 409.533142,482.650330 408.450409,471.022766 
	C407.871338,464.804230 408.249847,458.502838 407.901154,452.255310 
	C406.988342,435.900848 405.645081,419.566376 404.978973,403.203339 
	C404.324036,387.115875 404.290771,371.003143 404.027008,354.404785 
	C404.027008,354.404785 404.164185,353.925507 404.700317,353.309570 
M286.189178,66.716034 
	C303.765839,62.762012 318.383240,54.144936 329.351654,39.564892 
	C286.236481,46.475246 243.301971,46.258537 200.224731,39.473427 
	C206.146164,59.679756 255.097778,75.184441 286.189178,66.716034 
z"/>
<path fill="#DDDDE2" opacity="1.000000" stroke="none" 
	d="
M109.916702,352.992310 
	C109.624321,368.015411 109.331932,383.038544 109.013832,398.504944 
	C108.656830,398.301544 108.041557,397.657013 108.036667,397.007874 
	C107.957733,386.533081 107.861420,376.056580 107.986748,365.583069 
	C108.033401,361.684387 108.639709,357.792419 109.261482,353.446014 
	C109.532150,352.994659 109.916702,352.992310 109.916702,352.992310 
z"/>
<path fill="#E4E4EB" opacity="1.000000" stroke="none" 
	d="
M419.937439,365.385681 
	C419.615295,365.181183 419.051331,364.518463 419.050873,363.855316 
	C419.041901,351.391357 419.099701,338.927368 419.539520,326.296082 
	C419.942993,339.061584 419.950470,351.994446 419.937439,365.385681 
z"/>
<path fill="#F6F7FA" opacity="1.000000" stroke="none" 
	d="
M108.580521,296.270142 
	C108.990265,304.404022 109.003654,312.711578 108.958618,321.480835 
	C108.597305,318.514282 108.107643,315.089905 108.035599,311.656830 
	C107.929222,306.589111 108.119965,301.515167 108.580521,296.270142 
z"/>
<path fill="#E8E8F1" opacity="1.000000" stroke="none" 
	d="
M109.993286,352.529694 
	C109.916702,352.992310 109.532150,352.994659 109.339882,352.992859 
	C109.157051,345.463196 109.166489,337.935394 109.579315,330.243408 
	C110.011757,337.408539 110.040817,344.737823 109.993286,352.529694 
z"/>
<path fill="#000000" opacity="1.000000" stroke="none" 
	d="
M278.988861,84.990479 
	C287.995087,82.675247 297.541565,81.541039 305.865234,77.733612 
	C315.393188,73.375328 324.350006,67.284584 332.556732,60.702042 
	C337.537720,56.706856 340.855286,50.505257 344.482666,45.006306 
	C346.557159,41.861454 348.946564,40.894184 352.201935,42.151791 
	C358.845367,44.718281 365.427734,47.445679 372.005707,50.177990 
	C380.444122,53.683056 388.894073,57.165165 397.266632,60.822903 
	C413.685303,67.995750 430.296143,74.789436 446.369080,82.674370 
	C460.037140,89.379547 471.418793,99.677940 479.998688,112.054382 
	C486.426819,121.326851 492.320129,131.339737 493.451172,143.438171 
	C494.280365,152.308472 497.519867,160.935440 498.633453,169.802917 
	C499.517426,176.841843 499.046509,184.091461 498.732513,191.227966 
	C498.461151,197.395050 497.772156,203.564529 496.893341,209.679138 
	C495.652435,218.312744 494.065826,226.896683 492.628754,235.502151 
	C492.413544,236.790955 491.973358,238.093674 492.040283,239.368774 
	C492.266876,243.683701 490.357422,245.019897 486.075195,245.124435 
	C470.940826,245.493896 455.815216,246.246796 440.689270,246.921097 
	C435.553101,247.150055 430.425751,247.576920 424.587769,247.959686 
	C426.598297,236.110352 428.286987,225.422897 430.255127,214.787170 
	C431.875122,206.032883 433.493774,197.252823 435.745605,188.649780 
	C437.296326,182.725433 440.006348,177.111664 442.052673,171.307800 
	C443.841370,166.234665 441.583344,162.056000 436.222900,160.120834 
	C432.766846,158.873169 428.250549,161.378891 426.927490,166.011124 
	C422.783508,180.519852 418.655273,195.044464 415.067871,209.696823 
	C412.612152,219.726913 410.764069,229.934204 409.215973,240.148926 
	C408.013000,248.086136 407.596283,256.149994 407.001923,264.170319 
	C405.952789,278.327728 404.894348,292.487213 404.122314,306.661194 
	C403.751495,313.469421 404.025299,320.312714 403.600342,327.786713 
	C403.129883,335.469391 402.998322,342.505981 403.049713,349.541260 
	C403.062775,351.330170 403.657349,353.114868 403.984680,354.901489 
	C404.290771,371.003143 404.324036,387.115875 404.978973,403.203339 
	C405.645081,419.566376 406.988342,435.900848 407.901154,452.255310 
	C408.249847,458.502838 407.871338,464.804230 408.450409,471.022766 
	C409.533142,482.650330 411.158447,494.226227 412.390381,505.841431 
	C413.102997,512.560791 413.487244,519.314941 414.021484,526.053284 
	C414.253998,528.985413 414.492035,531.917175 414.797607,535.720947 
	C368.821564,543.933105 322.698822,551.860535 274.985229,553.966370 
	C272.800446,554.348267 271.403564,554.706421 270.006683,555.064575 
	C266.641876,555.060364 263.277039,555.056152 259.201965,554.752686 
	C256.370850,554.265991 254.250015,554.078491 252.129166,553.890930 
	C250.390961,553.596313 248.646759,553.015930 246.915466,553.052124 
	C232.153168,553.360901 217.606476,551.624451 203.052017,549.282532 
	C192.846970,547.640503 182.454971,547.194153 172.176895,545.960266 
	C165.019043,545.101013 157.896301,543.908386 150.787308,542.692566 
	C140.112091,540.866760 129.448883,538.960388 118.821770,536.878052 
	C117.653961,536.649170 115.854675,535.021484 115.876755,534.078308 
	C116.042503,526.997986 116.475014,519.916992 117.056747,512.855347 
	C117.568481,506.643494 118.615662,500.471069 119.003845,494.254822 
	C119.518784,486.008728 119.416389,477.723572 119.951790,469.479401 
	C120.773064,456.833313 122.050568,444.216858 122.869095,431.570648 
	C123.456802,422.490570 123.508896,413.377045 123.985802,404.288208 
	C124.536667,393.789734 125.291573,383.301941 126.025070,372.018799 
	C126.097870,370.515228 126.103477,369.802307 126.482666,368.858765 
	C126.903343,352.403931 126.961533,336.179779 126.958275,319.955597 
	C126.958138,319.283600 126.382881,318.611725 126.064415,317.501343 
	C125.695412,314.647522 125.337555,312.232147 124.979691,309.816772 
	C123.977570,292.796600 123.505554,275.723755 121.821480,258.771332 
	C120.197319,242.421967 117.955589,226.073029 114.805038,209.954590 
	C112.057899,195.900085 107.985420,182.068466 103.755318,168.367828 
	C102.809814,165.305466 99.138420,162.230759 96.003136,161.013824 
	C94.074921,160.265442 90.207809,162.468704 88.305504,164.415710 
	C87.037102,165.713943 87.041580,169.065231 87.597733,171.206421 
	C91.442459,186.008652 95.937256,200.649094 99.502403,215.514404 
	C101.901825,225.519058 103.120972,235.806778 105.112961,247.391632 
	C82.643456,246.682419 60.656246,245.988434 37.645458,245.262131 
	C35.712944,230.093903 33.516781,215.573166 32.122490,200.975845 
	C31.162003,190.920120 30.670712,180.730774 31.102684,170.649704 
	C31.944239,151.010040 35.849537,132.039459 46.894814,115.238037 
	C55.994949,101.395454 67.956795,90.703972 82.759399,83.222435 
	C90.926414,79.094666 98.915436,74.553978 107.302322,70.935646 
	C121.213440,64.934013 135.371201,59.502289 149.443420,53.876450 
	C158.912704,50.090790 168.465790,46.508583 177.867737,42.564507 
	C180.586609,41.423950 182.201248,41.897030 183.447311,44.299438 
	C188.970337,54.947769 197.736343,62.618267 207.177536,69.495522 
	C211.192169,72.419907 215.901794,74.484245 220.486832,76.505669 
	C225.316284,78.634842 230.342316,80.339966 235.349014,82.033630 
	C237.150467,82.643028 239.145432,82.680412 241.610321,83.355492 
	C245.404999,84.162766 248.641418,84.593399 252.091934,85.413483 
	C256.091858,85.868622 259.882141,86.079063 263.662384,85.962440 
	C268.139465,85.824326 272.607788,85.404221 277.398682,85.095688 
	C278.141235,85.053520 278.565063,85.022003 278.988861,84.990479 
z"/>
<path fill="#000000" opacity="1.000000" stroke="none" 
	d="
M285.773132,66.765717 
	C255.097778,75.184441 206.146164,59.679756 200.224731,39.473427 
	C243.301971,46.258537 286.236481,46.475246 329.351654,39.564892 
	C318.383240,54.144936 303.765839,62.762012 285.773132,66.765717 
z"/>
<path fill="#FFFFFF" opacity="1.000000" stroke="none" 
	d="
M126.075562,317.939789 
	C126.382881,318.611725 126.958138,319.283600 126.958275,319.955597 
	C126.961533,336.179779 126.903343,352.403931 126.278870,368.743622 
	C125.701492,368.859131 125.233627,368.875397 125.233627,368.875397 
	C125.310051,362.565979 125.386475,356.256592 125.430725,349.047302 
	C125.324471,344.412537 125.250381,340.677612 125.176300,336.942688 
	C125.271088,334.918610 125.365875,332.894501 125.413666,330.183899 
	C125.293816,329.319458 125.220970,329.141541 125.148132,328.963654 
	C125.194992,325.662079 125.241844,322.360474 125.522125,318.651581 
	C125.755539,318.244263 126.075569,317.939789 126.075562,317.939789 
z"/>
<path fill="#FFFFFF" opacity="1.000000" stroke="none" 
	d="
M277.079926,85.106331 
	C272.607788,85.404221 268.139465,85.824326 263.662384,85.962440 
	C259.882141,86.079063 256.091858,85.868622 252.338486,85.396645 
	C252.721603,84.913231 252.967087,84.709412 253.107391,84.378906 
	C260.724823,84.355896 268.342255,84.332878 276.401123,84.513123 
	C276.842590,84.716393 277.079926,85.106331 277.079926,85.106331 
z"/>
<path fill="#919197" opacity="1.000000" stroke="none" 
	d="
M404.005859,354.653137 
	C403.657349,353.114868 403.062775,351.330170 403.049713,349.541260 
	C402.998322,342.505981 403.129883,335.469391 403.589294,328.260773 
	C404.000031,328.254700 404.014954,328.421143 404.033203,329.290070 
	C404.079041,337.970184 404.121613,345.947845 404.164185,353.925507 
	C404.164185,353.925507 404.027008,354.404785 404.005859,354.653137 
z"/>
<path fill="#0D0C14" opacity="1.000000" stroke="none" 
	d="
M404.432251,353.617554 
	C404.121613,345.947845 404.079041,337.970184 404.096741,329.532593 
	C404.338074,337.151611 404.519196,345.230591 404.432251,353.617554 
z"/>
<path fill="#12111A" opacity="1.000000" stroke="none" 
	d="
M270.303162,555.347534 
	C271.403564,554.706421 272.800446,554.348267 274.583191,553.985229 
	C277.244904,554.498596 279.520782,555.016724 282.216888,555.630554 
	C278.083740,555.630554 274.341705,555.630554 270.303162,555.347534 
z"/>
<path fill="#ADADB3" opacity="1.000000" stroke="none" 
	d="
M252.707367,84.201271 
	C252.967087,84.709412 252.721603,84.913231 252.124405,85.007202 
	C248.641418,84.593399 245.404999,84.162766 242.012039,83.356270 
	C245.339462,83.328148 248.823410,83.675888 252.707367,84.201271 
z"/>
<path fill="#12111A" opacity="1.000000" stroke="none" 
	d="
M252.155762,554.276001 
	C254.250015,554.078491 256.370850,554.265991 258.743469,554.756104 
	C256.724243,554.926147 254.453308,554.793579 252.155762,554.276001 
z"/>
<path fill="#0F0E16" opacity="1.000000" stroke="none" 
	d="
M124.845901,337.204834 
	C125.250381,340.677612 125.324471,344.412537 125.285767,348.601227 
	C124.953819,345.192322 124.734665,341.329681 124.845901,337.204834 
z"/>
<path fill="#A5A5AA" opacity="1.000000" stroke="none" 
	d="
M126.064423,317.501343 
	C126.075569,317.939789 125.755539,318.244263 125.538208,318.204956 
	C125.148964,315.689087 124.977058,313.212524 124.892426,310.276367 
	C125.337555,312.232147 125.695412,314.647522 126.064423,317.501343 
z"/>
<path fill="#A5A5AA" opacity="1.000000" stroke="none" 
	d="
M125.091156,369.225464 
	C125.233627,368.875397 125.701492,368.859131 125.905289,368.974274 
	C126.103477,369.802307 126.097870,370.515228 126.025269,371.578400 
	C125.621750,371.144318 125.285217,370.359924 125.091156,369.225464 
z"/>
<path fill="#ADADB3" opacity="1.000000" stroke="none" 
	d="
M277.398682,85.095688 
	C277.079926,85.106331 276.842590,84.716393 276.861755,84.488960 
	C277.551056,84.265747 278.221191,84.269966 278.940063,84.632332 
	C278.565063,85.022003 278.141235,85.053520 277.398682,85.095688 
z"/>
<path fill="#0F0E16" opacity="1.000000" stroke="none" 
	d="
M124.964127,329.068054 
	C125.220970,329.141541 125.293816,329.319458 125.272446,329.769897 
	C125.045532,329.752411 124.912827,329.462433 124.964127,329.068054 
z"/>
</svg>