<svg version="1.1" id="Layer_1" xmlns="http://www.w3.org/2000/svg" xmlns:xlink="http://www.w3.org/1999/xlink" x="0px" y="0px"
	 width="100%" viewBox="0 0 480 480" enable-background="new 0 0 480 480" xml:space="preserve">
<path fill="#000000" opacity="1.000000" stroke="none" 
	d="
M175.994476,344.967896 
	C139.221756,295.470032 102.661804,246.258392 66.122025,197.031769 
	C55.397453,182.583572 44.803341,168.037720 33.979122,153.664902 
	C31.606600,150.514572 31.727497,148.485153 34.567986,145.659241 
	C63.507381,116.868393 92.340187,87.970200 121.131973,59.031563 
	C123.447464,56.704262 125.919273,55.837452 129.127899,55.839874 
	C206.949478,55.898674 284.771118,55.905842 362.592712,55.856762 
	C365.989441,55.854618 368.533600,56.846851 370.982117,59.308258 
	C399.417297,87.893082 427.890259,116.441231 456.542328,144.808121 
	C460.130951,148.361038 460.382111,150.677505 457.289246,154.737396 
	C413.883148,211.715057 370.634277,268.812500 327.365845,325.894989 
	C300.903503,360.805878 274.477356,395.744141 248.015930,430.655731 
	C246.738876,432.340576 245.278488,433.886444 243.473709,436.000488 
	C220.797913,405.404053 198.506439,375.326233 175.994476,344.967896 
M257.193146,345.793152 
	C278.006836,284.596802 298.820557,223.400482 319.806641,161.697281 
	C269.822693,161.697281 220.842957,161.697281 170.895645,161.697281 
	C195.245117,236.165085 219.350403,309.886108 243.455704,383.607117 
	C243.794693,383.531219 244.133682,383.455353 244.472672,383.379456 
	C248.620529,371.094238 252.768372,358.809021 257.193146,345.793152 
M420.909943,167.483398 
	C422.233093,165.663879 423.556244,163.844376 425.268433,161.489853 
	C422.756165,161.374100 421.126770,161.234268 419.497314,161.233688 
	C395.846588,161.225388 372.194183,161.386673 348.546539,161.119232 
	C343.585907,161.063126 341.683807,162.903870 340.181396,167.363434 
	C320.847626,224.751907 301.300690,282.068512 281.884064,339.429169 
	C280.206787,344.384247 277.974396,349.223267 278.428467,355.134460 
	C325.770874,292.761810 373.113251,230.389160 420.909943,167.483398 
M91.718819,195.813202 
	C131.769028,249.802322 171.819229,303.791443 212.144348,358.151154 
	C212.299957,357.208740 212.470016,356.863159 212.384277,356.601379 
	C191.614441,293.171234 170.786530,229.760010 150.136887,166.290787 
	C148.862762,162.374573 147.043945,161.139221 143.069717,161.163025 
	C119.242134,161.305664 95.413139,161.204865 71.584686,161.236359 
	C70.189529,161.238205 68.597382,160.739731 67.025574,162.382629 
	C75.116150,173.323929 83.212578,184.273163 91.718819,195.813202 
M252.387177,88.118370 
	C250.260223,86.309967 248.785919,83.735901 246.947998,82.979004 
	C227.771042,102.101097 208.916199,120.902000 190.327911,139.437103 
	C227.238678,139.437103 264.795532,139.437103 303.687714,139.437103 
	C286.214844,121.952568 269.554108,105.280716 252.387177,88.118370 
M149.989365,97.671562 
	C153.953766,109.779037 157.918182,121.886505 161.791656,133.716293 
	C180.744949,114.714981 199.385925,96.026756 217.735794,77.630402 
	C193.845123,77.630402 169.155746,77.630402 143.567566,77.630402 
	C145.722305,84.421455 147.707581,90.678452 149.989365,97.671562 
M310.500061,77.304543 
	C298.115021,77.304543 285.729980,77.304543 273.820709,77.304543 
	C292.297272,95.993813 310.592163,114.499306 328.910126,133.028137 
	C329.000793,132.954178 329.390839,132.798920 329.480347,132.539825 
	C335.403351,115.397240 341.301544,98.246086 347.203247,81.096153 
	C348.498108,77.333443 346.006714,77.322952 343.481049,77.322372 
	C332.820740,77.319946 322.160400,77.311325 310.500061,77.304543 
M359.589966,139.720856 
	C379.648621,139.720856 399.707275,139.720856 419.471741,139.720856 
	C402.174530,122.336639 385.099854,105.176117 367.476044,87.463661 
	C361.671143,104.565987 355.896667,121.578690 349.738708,139.721207 
	C353.436493,139.721207 356.032135,139.721207 359.589966,139.720856 
M73.598412,136.857864 
	C73.166603,137.650162 71.853226,138.046936 72.360313,139.103973 
	C95.102020,139.103973 117.705559,139.103973 141.118164,139.103973 
	C135.337250,121.407059 129.817947,104.511055 123.736496,85.894104 
	C106.434189,103.491409 90.253159,119.948318 73.598412,136.857864 
z"/>
</svg>