<svg version="1.1" id="Layer_1" xmlns="http://www.w3.org/2000/svg" xmlns:xlink="http://www.w3.org/1999/xlink" x="0px" y="0px"
	 width="100%" viewBox="0 0 512 512" enable-background="new 0 0 512 512" xml:space="preserve">
<path fill="#FFFFFF" opacity="1.000000" stroke="none" 
	d="
M1.000000,462.000000 
	C1.000000,308.379211 1.000000,154.758423 1.000000,1.068818 
	C171.569794,1.068818 342.139648,1.068818 513.000000,1.068818 
	C513.000000,154.357285 513.000000,307.714752 512.531372,461.536133 
	C341.708466,462.000000 171.354233,462.000000 1.000000,462.000000 
M487.476929,50.000000 
	C473.715302,50.000000 459.953705,50.000000 446.294739,50.000000 
	C446.294739,184.327591 446.294739,318.062042 446.294739,451.701660 
	C463.663239,451.701660 480.735504,451.701660 497.703369,451.701660 
	C497.703369,317.668671 497.703369,183.934265 497.703369,50.000000 
	C494.428986,50.000000 491.447662,50.000000 487.476929,50.000000 
M145.387375,292.966888 
	C151.456268,288.331299 157.522995,283.692902 163.594467,279.060699 
	C181.641327,265.292023 199.889633,251.777481 217.672455,237.675888 
	C230.987305,227.117355 243.852783,215.974548 256.648285,204.783127 
	C272.607697,190.824417 288.752258,177.025772 303.964417,162.278641 
	C319.896851,146.833221 334.967285,130.483948 350.109863,114.245628 
	C356.203705,107.710846 361.500214,100.430931 367.134949,93.470192 
	C370.809662,88.930733 374.440033,84.355339 379.000000,78.659706 
	C379.000000,81.530251 378.982971,82.817612 379.002777,84.104408 
	C379.125061,92.039604 383.002258,97.878159 390.234680,100.697510 
	C397.680725,103.600143 404.737396,101.994606 410.823456,97.469040 
	C415.245514,94.180824 416.707733,88.955757 415.951538,83.446678 
	C415.114258,77.346596 413.849365,71.304695 413.032928,65.202362 
	C411.263214,51.974487 409.711212,38.717548 407.958435,25.487295 
	C407.443481,21.600399 406.553192,17.763224 405.758575,13.492961 
	C399.510254,15.488434 394.023041,17.265615 388.520386,18.993786 
	C367.268036,25.668360 345.993958,32.274387 324.767212,39.029232 
	C319.458435,40.718609 315.777954,44.464211 315.105011,50.056515 
	C314.404602,55.876774 315.355194,60.985046 321.115143,64.905930 
	C327.540955,69.280045 334.148193,67.517784 341.215729,67.934868 
	C340.810211,69.049850 340.659149,70.599846 339.830566,71.572983 
	C327.625977,85.907349 316.054108,100.875549 302.885956,114.271782 
	C283.869385,133.617645 263.805542,151.945526 243.939957,170.440735 
	C233.257599,180.386215 222.270721,190.033051 211.031815,199.344620 
	C198.771378,209.502563 186.144516,219.225922 173.526138,228.942307 
	C155.276596,242.994781 137.213531,257.321899 118.482140,270.707947 
	C94.870331,287.581726 70.669777,303.631927 46.713600,320.023376 
	C40.257751,324.440613 37.954750,333.179749 41.431995,339.970001 
	C45.868439,348.633362 59.683350,351.460388 69.360901,345.071899 
	C84.561356,335.037506 99.733284,324.954224 114.738564,314.631805 
	C124.869286,307.662689 134.692627,300.246796 145.387375,292.966888 
M355.000000,388.500000 
	C355.000000,409.595520 355.000000,430.691040 355.000000,451.709381 
	C372.314880,451.709381 389.053406,451.709381 405.712585,451.709381 
	C405.712585,347.351685 405.712585,243.284836 405.712585,139.290588 
	C388.685150,139.290588 371.946625,139.290588 355.000000,139.290588 
	C355.000000,222.220673 355.000000,304.860352 355.000000,388.500000 
M318.000000,406.500000 
	C318.000000,348.408356 318.000000,290.316742 318.000000,232.286011 
	C300.360535,232.286011 283.289093,232.286011 266.283264,232.286011 
	C266.283264,305.639557 266.283264,378.706726 266.283264,451.713989 
	C283.639435,451.713989 300.710876,451.713989 318.000000,451.713989 
	C318.000000,436.786011 318.000000,422.143005 318.000000,406.500000 
M227.000000,386.500000 
	C227.000000,367.071960 227.000000,347.643921 227.000000,328.287842 
	C209.355637,328.287842 192.284744,328.287842 175.285980,328.287842 
	C175.285980,369.644226 175.285980,410.712158 175.285980,451.712219 
	C192.644302,451.712219 209.715195,451.712219 227.000000,451.712219 
	C227.000000,430.116760 227.000000,408.808380 227.000000,386.500000 
M103.500000,452.000000 
	C112.264046,452.000000 121.028084,452.000000 129.713715,452.000000 
	C129.713715,426.355896 129.713715,401.287079 129.713715,376.287109 
	C112.355736,376.287109 95.285561,376.287109 78.286240,376.287109 
	C78.286240,401.644043 78.286240,426.712860 78.286240,452.000000 
	C86.547401,452.000000 94.523705,452.000000 103.500000,452.000000 
z"/>
<path fill="#000000" opacity="1.000000" stroke="none" 
	d="
M1.000000,462.468658 
	C171.354233,462.000000 341.708466,462.000000 512.531372,462.000000 
	C513.000000,474.354218 513.000000,486.708466 512.533020,499.531342 
	C341.710693,500.000000 171.355347,500.000000 1.000000,500.000000 
	C1.000000,487.645782 1.000000,475.291534 1.000000,462.468658 
z"/>
<path fill="#FFFFFF" opacity="1.000000" stroke="none" 
	d="
M1.000000,500.473053 
	C171.355347,500.000000 341.710693,500.000000 512.533020,500.000000 
	C513.000000,504.329742 513.000000,508.659454 513.000000,512.968018 
	C342.333344,512.968018 171.666656,512.968018 1.000000,512.968018 
	C1.000000,508.939423 1.000000,504.942780 1.000000,500.473053 
z"/>
<path fill="#000000" opacity="1.000000" stroke="none" 
	d="
M487.971649,50.000000 
	C491.447662,50.000000 494.428986,50.000000 497.703369,50.000000 
	C497.703369,183.934265 497.703369,317.668671 497.703369,451.701660 
	C480.735504,451.701660 463.663239,451.701660 446.294739,451.701660 
	C446.294739,318.062042 446.294739,184.327591 446.294739,50.000000 
	C459.953705,50.000000 473.715302,50.000000 487.971649,50.000000 
z"/>
<path fill="#000000" opacity="1.000000" stroke="none" 
	d="
M145.020416,292.998840 
	C134.692627,300.246796 124.869286,307.662689 114.738564,314.631805 
	C99.733284,324.954224 84.561356,335.037506 69.360901,345.071899 
	C59.683350,351.460388 45.868439,348.633362 41.431995,339.970001 
	C37.954750,333.179749 40.257751,324.440613 46.713600,320.023376 
	C70.669777,303.631927 94.870331,287.581726 118.482140,270.707947 
	C137.213531,257.321899 155.276596,242.994781 173.526138,228.942307 
	C186.144516,219.225922 198.771378,209.502563 211.031815,199.344620 
	C222.270721,190.033051 233.257599,180.386215 243.939957,170.440735 
	C263.805542,151.945526 283.869385,133.617645 302.885956,114.271782 
	C316.054108,100.875549 327.625977,85.907349 339.830566,71.572983 
	C340.659149,70.599846 340.810211,69.049850 341.215729,67.934868 
	C334.148193,67.517784 327.540955,69.280045 321.115143,64.905930 
	C315.355194,60.985046 314.404602,55.876774 315.105011,50.056515 
	C315.777954,44.464211 319.458435,40.718609 324.767212,39.029232 
	C345.993958,32.274387 367.268036,25.668360 388.520386,18.993786 
	C394.023041,17.265615 399.510254,15.488434 405.758575,13.492961 
	C406.553192,17.763224 407.443481,21.600399 407.958435,25.487295 
	C409.711212,38.717548 411.263214,51.974487 413.032928,65.202362 
	C413.849365,71.304695 415.114258,77.346596 415.951538,83.446678 
	C416.707733,88.955757 415.245514,94.180824 410.823456,97.469040 
	C404.737396,101.994606 397.680725,103.600143 390.234680,100.697510 
	C383.002258,97.878159 379.125061,92.039604 379.002777,84.104408 
	C378.982971,82.817612 379.000000,81.530251 379.000000,78.659706 
	C374.440033,84.355339 370.809662,88.930733 367.134949,93.470192 
	C361.500214,100.430931 356.203705,107.710846 350.109863,114.245628 
	C334.967285,130.483948 319.896851,146.833221 303.964417,162.278641 
	C288.752258,177.025772 272.607697,190.824417 256.648285,204.783127 
	C243.852783,215.974548 230.987305,227.117355 217.672455,237.675888 
	C199.889633,251.777481 181.641327,265.292023 163.594467,279.060699 
	C157.522995,283.692902 151.456268,288.331299 145.020416,292.998840 
z"/>
<path fill="#000000" opacity="1.000000" stroke="none" 
	d="
M355.000000,388.000000 
	C355.000000,304.860352 355.000000,222.220673 355.000000,139.290588 
	C371.946625,139.290588 388.685150,139.290588 405.712585,139.290588 
	C405.712585,243.284836 405.712585,347.351685 405.712585,451.709381 
	C389.053406,451.709381 372.314880,451.709381 355.000000,451.709381 
	C355.000000,430.691040 355.000000,409.595520 355.000000,388.000000 
z"/>
<path fill="#000000" opacity="1.000000" stroke="none" 
	d="
M318.000000,407.000000 
	C318.000000,422.143005 318.000000,436.786011 318.000000,451.713989 
	C300.710876,451.713989 283.639435,451.713989 266.283264,451.713989 
	C266.283264,378.706726 266.283264,305.639557 266.283264,232.286011 
	C283.289093,232.286011 300.360535,232.286011 318.000000,232.286011 
	C318.000000,290.316742 318.000000,348.408356 318.000000,407.000000 
z"/>
<path fill="#000000" opacity="1.000000" stroke="none" 
	d="
M227.000000,387.000000 
	C227.000000,408.808380 227.000000,430.116760 227.000000,451.712219 
	C209.715195,451.712219 192.644302,451.712219 175.285980,451.712219 
	C175.285980,410.712158 175.285980,369.644226 175.285980,328.287842 
	C192.284744,328.287842 209.355637,328.287842 227.000000,328.287842 
	C227.000000,347.643921 227.000000,367.071960 227.000000,387.000000 
z"/>
<path fill="#000000" opacity="1.000000" stroke="none" 
	d="
M103.000000,452.000000 
	C94.523705,452.000000 86.547401,452.000000 78.286240,452.000000 
	C78.286240,426.712860 78.286240,401.644043 78.286240,376.287109 
	C95.285561,376.287109 112.355736,376.287109 129.713715,376.287109 
	C129.713715,401.287079 129.713715,426.355896 129.713715,452.000000 
	C121.028084,452.000000 112.264046,452.000000 103.000000,452.000000 
z"/>
</svg>