<svg version="1.1" id="Layer_1" xmlns="http://www.w3.org/2000/svg" xmlns:xlink="http://www.w3.org/1999/xlink" x="0px" y="0px"
	 width="100%" viewBox="0 0 896 624" enable-background="new 0 0 896 624" xml:space="preserve">
<path fill="#000000" opacity="1.000000" stroke="none" 
	d="
M326.082581,317.011108 
	C310.175598,349.880981 294.385498,382.391876 278.767487,414.985260 
	C277.235809,418.181763 275.228699,419.894531 271.879120,420.702148 
	C264.574921,422.463287 257.318878,424.150604 249.724136,422.657440 
	C233.173096,419.403381 222.525116,408.421173 219.894882,391.913086 
	C219.467682,389.231934 220.496399,387.030396 221.543854,384.757751 
	C241.344070,341.796753 261.140991,298.834198 280.936859,255.871231 
	C296.618774,221.836884 312.374725,187.836227 327.889160,153.725708 
	C329.993378,149.099396 332.582001,147.062271 337.830688,146.471359 
	C352.025055,144.873291 366.149048,142.524231 379.913147,138.520218 
	C382.405396,137.795212 385.081543,137.211517 387.178253,135.120331 
	C385.052582,130.785294 382.776428,126.557358 380.871399,122.168350 
	C377.392151,114.152397 379.445770,106.543625 387.227417,102.524582 
	C396.181793,97.899872 405.399811,93.794334 416.028656,93.910515 
	C440.855865,94.181908 465.688202,93.967812 490.518372,94.000076 
	C495.512573,94.006561 500.506866,94.331116 505.342499,95.706108 
	C510.468018,97.163528 514.726257,100.001877 517.840759,104.359833 
	C521.723816,109.793182 523.757812,115.401268 520.094360,121.965752 
	C518.251221,125.268532 517.156616,128.989075 515.425354,133.255600 
	C523.577698,135.378769 531.361755,137.461212 539.175232,139.426956 
	C549.013367,141.902100 558.847168,144.408035 568.742798,146.634232 
	C572.196777,147.411255 574.097046,149.174622 575.545349,152.352798 
	C602.063477,210.544479 628.684448,268.689270 655.276367,326.847290 
	C664.140137,346.232819 672.875977,365.678101 681.924133,384.977081 
	C683.803833,388.986328 683.567566,391.962158 680.947815,395.472656 
	C674.403564,404.241852 667.340698,412.347778 657.237671,417.170166 
	C649.647278,420.793274 641.739380,422.029053 633.445496,420.158844 
	C626.985229,418.702057 622.377869,415.690369 619.264160,409.124756 
	C597.640381,363.529083 575.581299,318.139832 553.647461,272.691284 
	C553.085388,271.526581 552.359375,270.440979 551.151001,269.396942 
	C547.975159,303.806030 548.034241,338.149719 551.805298,372.445099 
	C555.588440,406.850708 562.303040,440.654205 574.819580,474.318970 
	C491.144806,480.451630 408.471680,479.564667 324.963104,474.399597 
	C327.824799,466.862701 330.401978,460.422089 332.725220,453.891113 
	C339.617188,434.516815 342.978394,414.357452 345.612518,394.069641 
	C350.924957,353.153412 350.297211,312.030518 349.622620,270.912354 
	C349.617645,270.607513 349.469086,270.305023 349.157043,269.143280 
	C341.325226,285.392578 333.786407,301.033875 326.082581,317.011108 
M444.025024,385.499023 
	C443.941895,336.686523 443.867096,287.873993 443.759308,239.061539 
	C443.750946,235.279572 443.344086,231.816971 448.972717,231.458832 
	C451.465302,231.300201 453.398468,228.089508 453.283295,225.478683 
	C453.168243,222.870575 450.261108,223.251785 448.395477,223.448853 
	C444.570953,223.852890 443.554016,222.286133 443.598785,218.617371 
	C443.773468,204.291580 443.604156,189.961899 443.708130,175.634735 
	C443.737823,171.544846 442.317200,170.473099 438.609833,172.247131 
	C433.758881,174.568375 429.238586,177.294083 425.777618,181.536835 
	C424.770691,182.771225 424.005615,184.450592 422.032867,184.361252 
	C420.241669,183.638107 419.738617,181.918106 418.837128,180.568695 
	C411.712646,169.904526 404.633087,159.210388 397.523315,148.536362 
	C396.348969,146.773285 395.482391,144.636948 392.513245,145.858109 
	C377.136444,152.182373 360.807129,154.577484 344.518707,156.847046 
	C339.821136,157.501587 337.678314,159.540161 335.860931,163.521927 
	C320.720306,196.694122 305.427765,229.797043 290.156342,262.909454 
	C271.048615,304.340027 251.934113,345.767456 232.758911,387.166779 
	C231.476898,389.934631 231.328415,392.413055 232.433792,395.278778 
	C237.601059,408.674988 248.543564,414.296021 263.427704,411.289490 
	C267.000397,410.567810 269.127014,409.028107 270.774292,405.595703 
	C298.297241,348.246979 325.972839,290.971466 353.660553,233.701965 
	C354.458099,232.052307 355.006439,230.054886 358.145111,228.397903 
	C363.129913,308.014069 365.657471,386.491821 342.041931,463.236908 
	C343.270935,464.534546 344.781372,464.583862 346.282654,464.633301 
	C376.890717,465.642120 407.497711,466.687775 438.108063,467.620697 
	C444.621185,467.819214 444.656219,467.628784 444.653625,460.931976 
	C444.643982,436.119110 444.861908,411.304138 444.025024,385.499023 
M639.337219,319.079346 
	C634.838257,309.235626 630.328918,299.396606 625.842041,289.547363 
	C606.651672,247.422150 587.413147,205.318665 568.366150,163.128708 
	C566.452148,158.888916 563.788330,156.767487 559.342773,155.725983 
	C543.318787,151.971939 527.342163,148.004654 511.412903,143.866806 
	C508.129822,143.013977 506.506775,144.230988 504.753815,146.577911 
	C496.581635,157.518936 488.291016,168.371414 480.080505,179.283936 
	C475.725494,185.072113 475.781311,185.076141 470.679993,180.187531 
	C466.378967,176.065811 461.728546,172.522949 455.005615,170.886719 
	C455.005615,183.292389 454.961273,194.924240 455.023376,206.555496 
	C455.057068,212.865417 454.684570,219.175629 455.645996,225.486572 
	C455.967377,227.596375 458.511017,229.528809 456.974213,231.533218 
	C454.524933,234.727722 455.293823,238.217590 455.292969,241.609436 
	C455.274414,314.749390 455.316589,387.889374 455.349976,461.029327 
	C455.352997,467.634644 455.362610,467.685699 461.887390,467.643768 
	C492.185944,467.449066 522.456909,466.419312 552.708313,464.712616 
	C559.088440,464.352722 559.327759,464.210876 557.466614,458.037689 
	C545.252441,417.525146 539.347595,375.988220 537.831360,333.808777 
	C536.879944,307.339813 537.870544,280.892731 540.775330,254.548264 
	C541.674866,246.389374 542.921814,238.268768 544.036865,229.927414 
	C546.821411,230.899506 547.092407,233.098236 547.912170,234.795013 
	C574.930725,290.715973 601.985168,346.619934 628.781738,402.647217 
	C631.293701,407.899292 634.838135,409.644531 640.074951,409.692993 
	C652.766602,409.810455 660.834473,402.096802 668.392700,393.301270 
	C670.818970,390.477875 670.916443,387.984314 669.396973,384.700134 
	C659.399780,363.092072 649.556335,341.412872 639.337219,319.079346 
M430.285309,138.134506 
	C424.349030,128.311478 418.426147,118.480278 412.463409,108.673355 
	C411.454376,107.013824 410.655914,105.027977 407.892303,106.159019 
	C403.589417,107.920036 399.162628,109.375870 394.837646,111.085785 
	C390.862091,112.657539 389.847412,115.115471 391.719177,119.329224 
	C395.087067,126.911201 401.050415,132.642883 405.322754,139.573547 
	C411.143372,149.015884 417.491882,158.132874 423.884827,167.798752 
	C429.634094,163.381470 435.785278,161.047180 442.679993,158.823761 
	C438.480194,151.804764 434.576111,145.280014 430.285309,138.134506 
M483.569397,120.029716 
	C474.486542,132.834976 465.403717,145.640244 455.914185,159.018875 
	C463.103546,160.970947 468.747559,163.983261 474.317902,167.877029 
	C481.766418,158.066177 488.838043,148.839294 495.810577,139.538147 
	C500.778748,132.910767 506.402832,126.732468 509.168976,118.632896 
	C510.770264,113.944092 509.666962,110.615677 504.673615,107.678467 
	C498.856384,104.256599 494.673004,104.645569 491.569977,108.918709 
	C489.029144,112.417755 486.509613,115.932281 483.569397,120.029716 
M433.605865,105.318665 
	C430.718781,105.566582 427.717255,104.783676 424.156158,106.168076 
	C432.643768,120.136154 440.862061,133.661057 449.589600,148.023987 
	C459.942413,133.503387 469.597961,119.960754 480.036713,105.319626 
	C463.797821,105.319626 449.185516,105.319626 433.605865,105.318665 
z"/>
<path fill="#000000" opacity="1.000000" stroke="none" 
	d="
M348.749756,502.156921 
	C341.179962,498.785248 333.964905,495.503784 326.098877,491.926239 
	C329.751587,488.960266 333.131256,487.603241 336.803284,486.761017 
	C338.515137,493.533936 342.719421,495.605103 349.723328,493.502289 
	C350.919739,493.143127 352.333923,493.459595 353.643097,493.537567 
	C355.519836,493.649445 357.191711,492.978607 357.588989,491.186523 
	C358.525543,486.961761 361.681030,486.181091 365.121704,486.102783 
	C377.249756,485.826752 389.447906,484.899536 401.235016,488.970703 
	C402.324127,489.346863 403.528290,489.599518 404.432434,490.251495 
	C405.734894,491.190613 407.511841,492.194611 407.089966,494.113739 
	C406.623413,496.236084 404.522980,495.903381 402.939575,495.996674 
	C388.315002,496.858459 373.684906,497.152161 359.047363,496.280243 
	C355.534058,496.070953 351.761597,495.390320 351.798096,500.941986 
	C351.807800,502.416229 350.368103,502.538483 348.749756,502.156921 
z"/>
<path fill="#000000" opacity="1.000000" stroke="none" 
	d="
M494.513397,491.204041 
	C494.216766,488.011902 496.803833,488.689758 498.193207,488.594360 
	C503.664246,488.218719 509.164673,488.298767 514.649048,488.079834 
	C518.133972,487.940674 521.635559,487.752838 525.082825,487.259247 
	C528.980469,486.701202 532.565125,487.392395 535.286194,490.109955 
	C538.737183,493.556488 542.617065,494.331238 547.176941,493.481842 
	C548.867310,493.166962 550.827637,492.678314 552.246399,495.844330 
	C532.592834,496.355499 513.476013,497.021118 494.513397,491.204041 
z"/>
<path fill="#000000" opacity="1.000000" stroke="none" 
	d="
M654.379456,237.702454 
	C654.234131,240.626083 654.311401,243.133789 654.099854,245.616852 
	C653.711243,250.177277 653.453735,254.621902 659.049927,257.432495 
	C654.750305,259.129089 652.424927,257.605591 651.068787,254.705460 
	C648.137634,248.437439 648.367432,241.728165 649.250854,235.099121 
	C649.630859,232.248016 651.890198,230.309006 654.759521,230.014908 
	C658.048584,229.677795 661.399414,229.875504 664.720581,229.957245 
	C665.869690,229.985535 667.191528,230.239960 667.346375,231.731659 
	C667.514343,233.349426 666.350769,234.240891 665.013855,234.529434 
	C663.243713,234.911484 661.400024,234.973541 659.583435,235.114670 
	C657.628235,235.266525 655.464050,234.867111 654.379456,237.702454 
z"/>
<path fill="#000000" opacity="1.000000" stroke="none" 
	d="
M656.438232,282.336304 
	C653.494507,284.003937 653.714111,279.536865 650.691589,280.144135 
	C649.381470,280.632263 650.642212,283.101074 648.416138,284.433990 
	C643.168274,277.145538 640.601624,268.652954 637.122498,260.104980 
	C640.427673,260.063049 640.694763,262.142792 641.302429,263.975525 
	C642.132935,266.480255 643.567322,268.107513 646.503906,266.951355 
	C649.054382,265.947235 650.720947,267.369873 650.937195,269.458649 
	C651.442505,274.339294 654.704407,277.843384 656.438232,282.336304 
z"/>
<path fill="#000000" opacity="1.000000" stroke="none" 
	d="
M565.851868,486.370605 
	C569.255737,487.933136 572.724426,488.596802 576.026306,491.440155 
	C569.531982,495.517517 563.135071,498.345551 556.028748,500.695251 
	C555.803650,493.033081 563.565735,494.632812 565.947998,490.847382 
	C566.092590,487.860382 562.249146,488.617920 561.974060,486.162903 
	C563.221252,484.679291 564.366394,485.975525 565.851868,486.370605 
z"/>
<path fill="#000000" opacity="1.000000" stroke="none" 
	d="
M684.179810,240.221008 
	C684.736145,243.644821 682.493530,245.425751 680.942139,247.280792 
	C681.561035,249.506470 685.291748,248.003098 684.700378,250.633194 
	C684.093201,253.333389 681.445435,252.194824 679.661499,252.303665 
	C677.562439,252.431732 675.363159,252.750595 673.317566,251.678101 
	C672.240540,248.907959 674.712891,247.931107 675.989563,246.390930 
	C677.216370,244.910812 679.229797,244.004257 679.357910,241.765823 
	C678.290649,239.765793 676.793945,240.882782 675.419128,241.095993 
	C674.300720,241.269455 673.439758,240.808762 673.096558,239.728439 
	C672.726562,238.563599 673.546997,237.914856 674.383789,237.336990 
	C677.471130,235.205002 681.451111,236.225220 684.179810,240.221008 
z"/>
<path fill="#000000" opacity="1.000000" stroke="none" 
	d="
M610.890686,180.373566 
	C613.463196,186.335968 615.880676,191.979279 618.457947,197.995560 
	C616.187256,198.284485 615.759399,196.758392 615.068604,195.571121 
	C613.028564,192.064682 610.586853,188.946777 606.656494,187.403915 
	C603.740479,186.259216 602.809937,184.005081 602.829224,180.705353 
	C605.537476,180.797409 607.644165,176.745056 610.890686,180.373566 
z"/>
<path fill="#000000" opacity="1.000000" stroke="none" 
	d="
M690.528320,230.887146 
	C693.936401,229.748169 697.082947,229.935944 700.203247,230.241837 
	C701.731445,230.391647 703.238403,231.090851 703.147339,232.962372 
	C703.062500,234.705231 701.498291,234.855820 700.187439,234.927063 
	C696.257202,235.140625 692.322021,235.255737 688.608521,234.447098 
	C687.742615,232.312927 689.160217,231.787415 690.528320,230.887146 
z"/>
<path fill="#000000" opacity="1.000000" stroke="none" 
	d="
M674.679932,330.054810 
	C674.026184,326.384918 671.497498,323.484039 672.536255,318.387085 
	C676.344971,324.158936 679.054810,329.054871 680.451416,335.450745 
	C677.212036,334.494720 676.098755,332.355255 674.679932,330.054810 
z"/>
<path fill="#000000" opacity="1.000000" stroke="none" 
	d="
M700.271118,258.541809 
	C697.833679,257.646362 699.051941,256.528290 699.955383,255.722229 
	C701.498657,254.345261 703.211609,253.158447 705.046753,251.742493 
	C705.578064,255.895767 705.356873,256.199707 700.271118,258.541809 
z"/>
<path fill="#000000" opacity="1.000000" stroke="none" 
	d="
M354.999329,188.149719 
	C350.001953,188.135147 345.498444,188.271378 341.008453,188.083725 
	C336.984680,187.915573 335.615387,189.838669 335.932373,193.547195 
	C336.017273,194.540543 335.962402,195.545929 335.970184,196.545792 
	C336.036652,205.071198 336.038879,205.062851 344.185791,207.366196 
	C344.611633,207.486588 344.940430,207.950073 345.464325,208.375595 
	C344.354370,213.062881 340.514862,212.018005 337.473907,212.075958 
	C333.407257,212.153458 330.620941,209.734894 330.134888,205.910934 
	C329.423035,200.310730 329.470551,194.578720 330.357819,188.982803 
	C330.970490,185.118774 333.598389,182.791672 337.684265,182.769196 
	C351.845764,182.691254 366.007874,182.648880 380.169403,182.691849 
	C384.994812,182.706482 387.612732,185.614120 387.950073,190.147934 
	C388.307587,194.952957 388.205353,199.810974 388.001709,204.633087 
	C387.834503,208.592651 385.487701,211.548630 381.649048,211.901398 
	C376.373962,212.386200 371.009705,211.983383 365.687988,211.820282 
	C364.383484,211.780319 362.872101,211.302979 362.851410,209.583618 
	C362.830841,207.875992 364.289825,207.376740 365.619507,207.272171 
	C369.436249,206.971954 373.264740,206.736832 377.091766,206.676453 
	C380.372589,206.624680 381.987610,205.303085 381.956024,201.871353 
	C381.803467,185.290710 383.272858,188.654022 369.494904,188.309158 
	C364.831329,188.192413 360.164459,188.205704 354.999329,188.149719 
z"/>
<path fill="#000000" opacity="1.000000" stroke="none" 
	d="
M392.779907,207.057343 
	C387.794769,199.940948 389.088348,192.177597 389.176880,184.612930 
	C389.183777,184.025452 389.630981,183.000580 390.014740,182.928253 
	C394.039459,182.169739 395.531708,178.683472 398.184418,174.597946 
	C401.027863,187.892426 398.925385,199.821121 398.852020,212.125198 
	C395.063538,211.542953 394.647217,208.769150 392.779907,207.057343 
z"/>
<path fill="#000000" opacity="1.000000" stroke="none" 
	d="
M357.774170,200.054855 
	C354.631470,197.727585 354.631470,197.727585 355.551300,193.874802 
	C354.219452,192.901810 350.996521,193.765244 352.114227,190.138275 
	C355.571655,189.367828 359.101562,189.266190 362.974426,190.309433 
	C362.186890,193.375626 361.196320,196.128906 363.053741,199.242416 
	C364.282013,201.301239 363.081116,203.945068 360.489532,204.938110 
	C357.611267,206.040985 354.628265,206.211960 351.888092,204.390518 
	C351.083496,203.855728 351.110016,203.006943 351.537628,202.173248 
	C351.956696,201.356186 352.623352,201.031998 353.525726,200.920853 
	C354.983185,200.741333 356.742584,202.650696 357.774170,200.054855 
z"/>
<path fill="#000000" opacity="1.000000" stroke="none" 
	d="
M385.553284,169.754272 
	C383.399017,165.887573 386.706329,163.927368 387.659912,161.158752 
	C389.330750,169.508408 389.330750,169.508408 385.553284,169.754272 
z"/>
<path fill="#000000" opacity="1.000000" stroke="none" 
	d="
M474.012817,233.277100 
	C469.856140,233.214111 466.190369,233.252182 462.539032,233.041046 
	C460.805359,232.940781 458.647278,232.026993 460.073181,229.998474 
	C461.666229,227.732178 460.939148,225.686966 460.577332,223.502640 
	C463.755646,222.002731 466.925507,222.074402 470.068909,222.072693 
	C485.548065,222.064301 501.027618,222.021667 516.506042,222.134628 
	C520.200134,222.161560 523.284546,221.876114 523.092102,216.275650 
	C529.227234,218.940002 534.068359,222.273636 538.604065,226.078598 
	C539.762451,227.050400 539.980469,228.777344 538.651123,229.558899 
	C533.580994,232.539810 529.552490,237.285156 523.187439,239.099136 
	C523.325989,233.487427 520.095459,233.152756 515.952942,233.210632 
	C502.140900,233.403595 488.324432,233.278854 474.012817,233.277100 
z"/>
<path fill="#000000" opacity="1.000000" stroke="none" 
	d="
M491.326263,267.425354 
	C495.900909,267.600403 500.050507,267.785187 504.193787,268.063904 
	C505.728424,268.167145 507.406250,268.552307 507.347504,270.498779 
	C507.299652,272.084717 505.769592,272.653320 504.449982,272.749481 
	C497.483704,273.256989 490.499603,273.449493 483.540833,272.749878 
	C481.259338,272.520477 479.584595,270.907532 478.698212,268.830475 
	C477.924622,267.017792 477.121338,265.059570 477.037842,263.134979 
	C476.205261,243.945297 476.971619,243.274948 494.253815,243.692596 
	C504.556824,243.941589 514.870728,243.728073 525.179626,243.758636 
	C526.666199,243.763046 528.226990,243.723526 529.619751,244.145584 
	C531.466248,244.705124 533.023987,246.084167 532.578918,248.176437 
	C532.098145,250.436569 530.131042,249.629654 528.479858,249.611023 
	C514.684753,249.455475 500.888458,249.399521 487.092529,249.321350 
	C485.547455,249.312592 483.919159,249.448547 483.351746,251.160126 
	C481.735291,256.036255 481.538879,261.136719 483.319489,265.852020 
	C484.626648,269.313629 488.260132,267.269196 491.326263,267.425354 
z"/>
<path fill="#000000" opacity="1.000000" stroke="none" 
	d="
M478.863831,456.735199 
	C476.203186,450.050690 477.255798,443.561798 478.077576,437.141571 
	C478.548004,433.466461 481.174377,431.765961 484.801544,431.758972 
	C499.126587,431.731293 513.451721,431.729767 527.776855,431.748047 
	C531.931519,431.753326 534.560547,434.172882 535.046326,437.967712 
	C535.763184,443.568817 535.796692,449.309357 534.850220,454.894775 
	C534.098999,459.327942 531.240662,460.605713 526.151489,458.896088 
	C530.728760,453.892273 529.612122,447.849121 529.694580,441.978210 
	C529.742371,438.578949 528.210144,437.231812 524.839600,437.255096 
	C512.514465,437.340302 500.187469,437.364532 487.863068,437.233490 
	C484.506866,437.197784 482.829956,438.580963 482.632629,441.780273 
	C482.268982,447.675903 481.249298,453.612244 483.818542,459.353729 
	C481.160645,460.105988 480.107208,458.575867 478.863831,456.735199 
z"/>
<path fill="#000000" opacity="1.000000" stroke="none" 
	d="
M501.267700,451.242432 
	C500.339966,450.847839 499.453949,450.584564 499.348419,450.137146 
	C498.460846,446.375153 505.220917,439.000641 509.382935,439.153473 
	C510.231506,441.060455 508.182159,441.997986 507.819458,443.943542 
	C510.600983,444.467010 512.187256,446.683990 513.370728,449.026947 
	C514.187378,450.643677 512.123657,451.499023 511.390961,452.708527 
	C510.136963,454.778503 508.363037,454.850769 507.030518,453.026337 
	C505.549011,450.997894 503.563385,451.508331 501.267700,451.242432 
z"/>
<path fill="#000000" opacity="1.000000" stroke="none" 
	d="
M521.106812,273.208679 
	C518.293518,272.985870 515.692383,273.640076 513.748840,271.551514 
	C516.529541,267.904388 527.726318,265.752319 530.548218,268.287415 
	C532.613220,270.142487 531.301819,271.595184 529.429504,272.473480 
	C526.934692,273.643738 524.195923,273.040466 521.106812,273.208679 
z"/>
<path fill="#000000" opacity="1.000000" stroke="none" 
	d="
M501.712280,254.243011 
	C500.290558,251.727295 501.299805,250.808487 503.440643,250.739273 
	C505.216217,250.681885 507.557770,250.207535 507.766724,252.807007 
	C508.058990,256.443054 507.919037,260.120758 507.829132,263.777313 
	C507.792236,265.279724 506.937683,266.255005 505.248993,266.146149 
	C503.489319,266.032684 503.173370,264.755188 503.007233,263.366119 
	C502.656128,260.430695 503.623352,257.346649 501.712280,254.243011 
z"/>
</svg>